<svg width="392" height="104" viewBox="0 0 392 104" fill="none" xmlns="http://www.w3.org/2000/svg">
<rect y="91" width="392" height="1" rx="0.5" fill="#E8E8E8"/>
<path d="M32 82H40V92H32V82Z" fill="#E8E8E8"/>
<path d="M40 82H48V92H40V82Z" fill="#E8E8E8"/>
<path d="M64 77H72V92H64V77Z" fill="#E8E8E8"/>
<path d="M72 75H80V92H72V75Z" fill="#E8E8E8"/>
<path d="M96 65H104V92H96V65Z" fill="#E8E8E8"/>
<path d="M104 63H112V92H104V63Z" fill="#E8E8E8"/>
<path d="M128 53H136V92H128V53Z" fill="#E8E8E8"/>
<path d="M136 51H144V92H136V51Z" fill="#E8E8E8"/>
<path d="M144 51H152V92H144V51Z" fill="#E8E8E8"/>
<path d="M169 44H177V92H169V44Z" fill="#E8E8E8"/>
<path d="M177 39H185V92H177V39Z" fill="#E8E8E8"/>
<path d="M185 39H193V92H185V39Z" fill="#E8E8E8"/>
<path d="M350 12H358V92H350V12Z" fill="#E8E8E8"/>
<path d="M358 0H366V92H358V0Z" fill="#E8E8E8"/>
</svg>
